# xmcd
#
# Track frame offsets:
#	150
#	15355
#	31204
#	42155
#	51471
#	66114
#	77935
#	90593
#	105615
#	116039
#	127510
#	142031
#	157275
#	173623
#	187659
#	199188
#	208452
#	228838
#	246665
#	263491
#	277112
#	290609
#	303487
#	315615
#
# Disc length: 4378 seconds
#
# Revision: 0
# Processed by: cddbd v1.5.1PL0 Copyright (c) Steve Scherf et al.
# Submitted via: MusicWizard 7.0.2
#
DISCID=5a111818
DTITLE=Various Artist - Best Country - (C)1989 TELDEC [CD 2/2)
DYEAR=1989
DGENRE=Country
TTITLE0=Dolly Parton - Apple Jack
TTITLE1=Bill Anderson - Nashville Mirrors
TTITLE2=Roy Head - Angel With A Broken Wing
TTITLE3=Burl Ives - Little Bitty Tear
TTITLE4=Jeanne Pruett - Óatin Sheets
TTITLE5=Conway Twitty and Loretta Lynn - After The Fire Is Gone
TTITLE6=Bob Wills - San Antonio Rose
TTITLE7=Roy Clark - Yesterday When I Was Young
TTITLE8=Emmylou Harris - Mister Sandman
TTITLE9=Charlie Rich - The Most Beautiful Girl
TTITLE10=Merle Haggard - If We're Not Back In Love By Monday
TTITLE11=John Conlee - As Long As I'm Rockin' With You
TTITLE12=Reba McEntire - Only In My Mind
TTITLE13=Glen Campbell - The Hand That Rocks The Cradle
TTITLE14=Freddy Fender - Before The Next Teardrop Falls
TTITLE15=Crystal Gayle - Sparkling Look Of Love
TTITLE16=Steve Earle - Copperhead Road
TTITLE17=Nanci Griffith - Lone Star State Of Mind
TTITLE18=Steve Wariner - Small Town Girl
TTITLE19=Nicolette Larson - Only Love Will Make It Right
TTITLE20=Lee Greenwood - Hearts Aren't Made To Break
TTITLE21=George Strait - It Ain't Cool To Be Crazy About You
TTITLE22=Tbmmy"Wynette - Stand By Your Man
TTITLE23=Tommy Overstreet - Send Me No Roses
EXTD=(c)1989 TELDEC RecordService GmbH, Original MCA Recordings --  DINO Box 2231
EXTT0=
EXTT1=
EXTT2=
EXTT3=
EXTT4=
EXTT5=
EXTT6=
EXTT7=
EXTT8=
EXTT9=
EXTT10=
EXTT11=
EXTT12=
EXTT13=
EXTT14=
EXTT15=
EXTT16=
EXTT17=
EXTT18=
EXTT19=
EXTT20=
EXTT21=
EXTT22=
EXTT23=
PLAYORDER=
